<svg xmlns="http://www.w3.org/2000/svg" xmlns:xlink="http://www.w3.org/1999/xlink" viewBox="0 0 2390.05 514.21">
  <defs>
    <linearGradient id="linear-gradient" x1="1195.05" y1="515.57" x2="1195.05" y2="3.57" gradientTransform="translate(0 516.63) scale(1 -1)" gradientUnits="userSpaceOnUse">
      <stop offset="0" stop-color="#13bbee"/>
      <stop offset="1" stop-color="#2374bb"/>
    </linearGradient>
    <mask id="mask" x="0" y="0" width="513.2" height="514.21" maskUnits="userSpaceOnUse">
      <g id="mask0_156_91" data-name="mask0 156 91">
        <path d="m113.88,353.31l142.41,82.43v-168.53c0-6.57,3.49-12.65,9.18-15.94l130.21-75.37c6.8-3.94,6.8-13.79,0-17.75l-127.09-73.52c-7.61-4.41-16.97-4.41-24.58,0l-133.25,77.08c-5.69,3.29-9.18,9.37-9.18,15.96v154.26c0,8.82,4.69,16.96,12.3,21.37Z" fill="#9dd0eb" stroke-width="0"/>
        <path d="m395.03,247.29l-33.01-19.14-77.26,44.73v55.96l110.27-63.85c6.79-3.93,6.79-13.76,0-17.69Z" fill="#9dd0eb" stroke-width="0"/>
        <path d="m395.01,336.76l-33.33-19.3-76.92,44.53v56.13l110.23-63.67c6.79-3.93,6.81-13.76,0-17.71l.02.02Z" fill="#9dd0eb" stroke-width="0"/>
      </g>
    </mask>
  </defs>
  <rect x=".05" y="1.06" width="2390" height="512" rx="124" ry="124" fill="url(#linear-gradient)" stroke-width="0"/>
  <rect x="1124.86" y="226.33" width="18.05" height="92.73" fill="#fff" stroke-width="0"/>
  <path d="m1233.01,229.11c-4.75-2.66-10.28-3.98-16.6-3.98-6.96,0-12.74,1.49-17.32,4.47-4.55,2.98-7.89,6.92-10.03,11.83h-1.14v-15.09h-17.33v92.73h18.05v-55.06c0-4.91.93-9.09,2.78-12.56,1.89-3.5,4.45-6.16,7.67-7.97,3.26-1.81,6.98-2.72,11.16-2.72,6.12,0,10.93,1.91,14.43,5.73,3.5,3.78,5.25,9.04,5.25,15.76v56.81h18.06v-58.98c0-7.65-1.31-14.07-3.93-19.26-2.61-5.19-6.3-9.09-11.05-11.71Z" fill="#fff" stroke-width="0"/>
  <path d="m1033.89,229.11c-4.75-2.66-10.29-3.98-16.6-3.98-6.97,0-12.74,1.49-17.33,4.47-4.55,2.98-7.89,6.92-10.02,11.83h-1.15v-15.09h-17.33v92.73h18.05v-55.06c0-4.91.93-9.09,2.78-12.56,1.89-3.5,4.45-6.16,7.67-7.97,3.26-1.81,6.98-2.72,11.17-2.72,6.12,0,10.93,1.91,14.43,5.73,3.5,3.78,5.25,9.04,5.25,15.76v56.81h18.05v-58.98c0-7.65-1.31-14.07-3.92-19.26-2.62-5.19-6.3-9.09-11.05-11.71Z" fill="#fff" stroke-width="0"/>
  <path d="m935.42,235.87c-3.9-3.7-8.31-6.42-13.22-8.15-4.91-1.73-9.98-2.6-15.21-2.6-8.61,0-16.14,2.03-22.58,6.1-6.4,4.07-11.39,9.72-14.97,16.96-3.54,7.24-5.31,15.62-5.31,25.11s1.77,18.01,5.31,25.17c3.58,7.12,8.65,12.66,15.21,16.6,6.6,3.9,14.47,5.85,23.6,5.85,6.76,0,12.78-1.03,18.05-3.08,5.31-2.09,9.72-5.01,13.22-8.75,3.54-3.78,6-8.19,7.36-13.22l-17.08-3.08c-1.09,2.9-2.66,5.33-4.71,7.3-2.05,1.97-4.49,3.46-7.3,4.47-2.82.97-5.94,1.45-9.36,1.45-5.27,0-9.88-1.13-13.82-3.38-3.95-2.29-7.02-5.61-9.24-9.96-2.02-4.04-3.09-8.9-3.23-14.55h65.89v-6.4c0-8.41-1.13-15.55-3.38-21.43-2.25-5.92-5.33-10.73-9.24-14.43Zm-53.26,28.74c.22-3.99,1.21-7.71,2.97-11.17,2.05-3.98,4.95-7.2,8.69-9.66,3.78-2.49,8.21-3.74,13.28-3.74,4.67,0,8.73,1.07,12.2,3.2,3.5,2.13,6.22,5.05,8.15,8.75,1.93,3.66,2.9,7.87,2.9,12.62h-48.19Z" fill="#fff" stroke-width="0"/>
  <polygon points="1325.43 319.06 1344.09 319.06 1344.09 265.15 1396.61 265.15 1396.61 249.15 1344.09 249.15 1344.09 211.48 1402.1 211.48 1402.1 195.42 1325.43 195.42 1325.43 319.06" fill="#fff" stroke-width="0"/>
  <path d="m707.65,201.4c-8.37-5.11-17.89-7.67-28.55-7.67s-20.26,2.56-28.68,7.67c-8.37,5.07-14.97,12.36-19.8,21.85-4.83,9.46-7.24,20.79-7.24,33.99s2.42,24.49,7.24,33.99c4.83,9.5,11.43,16.8,19.8,21.91,8.41,5.07,17.97,7.61,28.68,7.61s20.18-2.54,28.55-7.61c8.41-5.11,15.03-12.4,19.86-21.85,4.83-9.5,7.24-20.85,7.24-34.05s-2.42-24.53-7.24-33.99c-4.83-9.5-11.45-16.78-19.86-21.85Zm3.74,81.32c-3.22,6.88-7.65,12.11-13.28,15.7-5.59,3.54-11.93,5.31-19.02,5.31s-13.48-1.77-19.08-5.31c-5.59-3.58-10.02-8.81-13.28-15.7-3.22-6.92-4.83-15.41-4.83-25.48s1.61-18.53,4.83-25.42c3.26-6.92,7.69-12.15,13.28-15.7,5.59-3.58,11.95-5.37,19.08-5.37s13.42,1.79,19.02,5.37c5.64,3.54,10.06,8.77,13.28,15.7,3.26,6.88,4.89,15.35,4.89,25.42s-1.63,18.55-4.89,25.48Z" fill="#fff" stroke-width="0"/>
  <path d="m825.77,230.8c-5.88-3.78-12.56-5.67-20.04-5.67-5.76,0-10.38.97-13.89,2.9-3.5,1.89-6.24,4.1-8.21,6.64-1.97,2.53-3.48,4.77-4.53,6.7h-1.51v-15.03h-17.63v127.5h18.05v-49.2h1.09c1.09,1.97,2.64,4.23,4.65,6.76,2.01,2.54,4.79,4.75,8.33,6.64,3.58,1.89,8.19,2.84,13.83,2.84,7.48,0,14.15-1.91,19.98-5.73,5.84-3.86,10.42-9.36,13.76-16.48,3.34-7.16,5.01-15.76,5.01-25.78s-1.69-18.59-5.07-25.72c-3.34-7.12-7.95-12.58-13.83-16.36Zm-2.17,58.62c-1.85,4.95-4.59,8.87-8.21,11.77-3.62,2.86-8.13,4.29-13.52,4.29s-9.58-1.37-13.16-4.1c-3.58-2.78-6.32-6.62-8.21-11.53-1.89-4.91-2.84-10.62-2.84-17.15s.93-12.07,2.78-16.9c1.85-4.83,4.57-8.59,8.15-11.29,3.62-2.7,8.05-4.04,13.28-4.04s9.96,1.41,13.58,4.23c3.66,2.82,6.4,6.66,8.21,11.53,1.85,4.87,2.78,10.36,2.78,16.48s-.95,11.77-2.84,16.72Z" fill="#fff" stroke-width="0"/>
  <path d="m1133.97,190.47c-3.14,0-5.83,1.07-8.09,3.2-2.21,2.09-3.32,4.63-3.32,7.61s1.11,5.47,3.32,7.61c2.26,2.09,4.95,3.14,8.09,3.14s5.82-1.05,8.03-3.14c2.26-2.13,3.38-4.67,3.38-7.61s-1.12-5.51-3.38-7.61c-2.21-2.13-4.89-3.2-8.03-3.2Z" fill="#fff" stroke-width="0"/>
  <polygon points="2074.83 226.33 2053.22 226.33 2016.27 265.57 2014.7 265.57 2014.7 195.42 1996.65 195.42 1996.65 319.06 2014.7 319.06 2014.7 286.16 2023.67 277.19 2055.21 319.06 2077.37 319.06 2037.28 266.13 2074.83 226.33" fill="#fff" stroke-width="0"/>
  <path d="m1922.76,244.32c3.78-2.66,8.19-3.98,13.22-3.98,5.75,0,10.34,1.57,13.76,4.71,3.46,3.14,5.68,6.88,6.64,11.23h17.57c-.64-6.24-2.68-11.69-6.1-16.36-3.38-4.67-7.83-8.29-13.34-10.87-5.51-2.62-11.79-3.92-18.84-3.92-8.73,0-16.31,2.03-22.75,6.1-6.44,4.07-11.43,9.72-14.98,16.96-3.54,7.2-5.31,15.52-5.31,24.93s1.73,17.55,5.19,24.75c3.46,7.2,8.41,12.86,14.85,16.96,6.48,4.07,14.21,6.1,23.19,6.1,7.32,0,13.7-1.35,19.13-4.04,5.48-2.7,9.84-6.4,13.1-11.11s5.22-10.06,5.86-16.06h-17.57c-.76,3.34-2.11,6.2-4.04,8.57-1.89,2.37-4.25,4.21-7.07,5.49-2.77,1.25-5.87,1.87-9.29,1.87-5.11,0-9.56-1.35-13.34-4.04-3.75-2.7-6.65-6.5-8.7-11.41-2.05-4.91-3.08-10.74-3.08-17.51s1.05-12.32,3.14-17.15c2.1-4.87,5.01-8.61,8.76-11.23Z" fill="#fff" stroke-width="0"/>
  <path d="m1856.86,231.16c-3.62-2.29-7.53-3.86-11.71-4.71-4.15-.89-8.07-1.33-11.78-1.33-5.59,0-10.92.8-15.99,2.41-5.07,1.57-9.56,4.11-13.47,7.61-3.86,3.46-6.8,8.01-8.81,13.64l16.96,3.86c1.33-3.26,3.73-6.22,7.19-8.88,3.5-2.7,8.29-4.04,14.37-4.04s10.22,1.45,13.16,4.35c2.98,2.9,4.46,6.98,4.46,12.26v.42c0,2.17-.78,3.74-2.35,4.71-1.57.97-4.09,1.67-7.55,2.11-3.46.4-7.97.92-13.52,1.57-4.39.52-8.69,1.29-12.92,2.29-4.22,1.01-8.05,2.49-11.47,4.47-3.42,1.97-6.14,4.65-8.15,8.03-2.01,3.38-3.02,7.69-3.02,12.92,0,6.08,1.37,11.21,4.11,15.39,2.78,4.18,6.54,7.39,11.29,9.6,4.75,2.17,10.06,3.26,15.94,3.26,5.11,0,9.49-.74,13.16-2.23,3.66-1.49,6.66-3.36,8.99-5.61,2.33-2.25,4.09-4.55,5.25-6.88h.73v12.68h17.63v-61.58c0-6.76-1.17-12.26-3.51-16.48-2.33-4.27-5.33-7.55-8.99-9.84Zm-5.56,54.45c0,3.66-.94,7.1-2.83,10.32-1.85,3.18-4.57,5.76-8.15,7.73-3.54,1.97-7.81,2.96-12.8,2.96s-9.32-1.13-12.62-3.38c-3.3-2.29-4.95-5.67-4.95-10.14,0-3.22.85-5.79,2.54-7.73,1.73-1.97,4.02-3.48,6.88-4.53,2.9-1.05,6.1-1.79,9.6-2.23,1.49-.2,3.34-.44,5.55-.72,2.22-.32,4.49-.66,6.82-1.03,2.34-.4,4.41-.86,6.22-1.39,1.85-.56,3.1-1.17,3.74-1.81v11.95Z" fill="#fff" stroke-width="0"/>
  <path d="m2256.64,195.42v45.94h-1.09c-1.08-1.93-2.61-4.17-4.58-6.7-1.94-2.54-4.67-4.75-8.21-6.64-3.51-1.93-8.13-2.9-13.89-2.9-7.44,0-14.11,1.89-19.98,5.67-5.88,3.78-10.51,9.24-13.89,16.36-3.34,7.12-5.01,15.7-5.01,25.72s1.65,18.61,4.95,25.78c3.34,7.12,7.93,12.62,13.77,16.48,5.87,3.82,12.55,5.73,20.04,5.73,5.63,0,10.22-.95,13.76-2.84,3.55-1.89,6.32-4.11,8.34-6.64,2.05-2.54,3.62-4.79,4.7-6.76h1.51v14.43h17.63v-123.64h-18.05Zm-2.53,94.42c-1.86,4.91-4.59,8.75-8.21,11.53-3.59,2.74-7.97,4.1-13.17,4.1s-9.86-1.43-13.52-4.29c-3.62-2.9-6.36-6.82-8.21-11.77-1.85-4.95-2.78-10.53-2.78-16.72s.91-11.61,2.72-16.48c1.85-4.87,4.59-8.71,8.21-11.53,3.62-2.82,8.15-4.23,13.58-4.23s9.7,1.35,13.29,4.04c3.58,2.7,6.29,6.46,8.15,11.29,1.85,4.83,2.77,10.46,2.77,16.9s-.94,12.23-2.83,17.15Z" fill="#fff" stroke-width="0"/>
  <path d="m2157.99,235.87c-3.9-3.7-8.31-6.42-13.22-8.15-4.91-1.73-9.98-2.6-15.21-2.6-8.61,0-16.14,2.03-22.58,6.1-6.4,4.07-11.39,9.72-14.97,16.96-3.54,7.24-5.31,15.62-5.31,25.11s1.77,18.01,5.31,25.17c3.58,7.12,8.65,12.66,15.21,16.6,6.6,3.9,14.47,5.85,23.61,5.85,6.76,0,12.78-1.03,18.05-3.08,5.31-2.09,9.72-5.01,13.22-8.75,3.54-3.78,6-8.19,7.36-13.22l-17.08-3.08c-1.09,2.9-2.66,5.33-4.71,7.3-2.05,1.97-4.49,3.46-7.3,4.47-2.82.97-5.94,1.45-9.36,1.45-5.27,0-9.88-1.13-13.83-3.38-3.94-2.29-7.02-5.61-9.23-9.96-2.03-4.04-3.09-8.9-3.23-14.55h65.89v-6.4c0-8.41-1.13-15.55-3.38-21.43-2.25-5.92-5.33-10.73-9.24-14.43Zm-53.25,28.74c.22-3.99,1.2-7.71,2.97-11.17,2.05-3.98,4.95-7.2,8.69-9.66,3.78-2.49,8.21-3.74,13.28-3.74,4.67,0,8.73,1.07,12.19,3.2,3.51,2.13,6.22,5.05,8.15,8.75,1.94,3.66,2.9,7.87,2.9,12.62h-48.18Z" fill="#fff" stroke-width="0"/>
  <rect x="1525.69" y="195.42" width="18.05" height="123.64" fill="#fff" stroke-width="0"/>
  <path d="m1479.92,280.61c.04,5.27-1.06,9.62-3.32,13.04-2.21,3.42-5.01,5.98-8.39,7.67-3.34,1.69-6.7,2.54-10.08,2.54-5.6,0-10.14-1.87-13.65-5.61-3.5-3.74-5.25-8.77-5.25-15.09v-56.81h-18.05v58.98c0,7.65,1.29,14.07,3.87,19.26,2.61,5.19,6.19,9.12,10.74,11.77,4.59,2.62,9.86,3.92,15.82,3.92,6.96,0,12.78-1.63,17.45-4.89,4.7-3.3,8.12-7.42,10.26-12.38h.96v16.06h17.75v-92.73h-18.11v54.27Z" fill="#fff" stroke-width="0"/>
  <path d="m1769.14,303.91c-1.09.2-2.36.3-3.81.3-1.97,0-3.8-.3-5.49-.91-1.65-.64-3-1.83-4.04-3.56-1.05-1.77-1.57-4.41-1.57-7.91v-51.01h19.01v-14.49h-19.01v-22.22h-18.05v22.22h-13.59v14.49h13.59v54.76c0,5.59,1.26,10.24,3.8,13.95,2.53,3.7,5.86,6.44,9.96,8.21,4.11,1.77,8.53,2.62,13.28,2.53,2.9-.04,5.31-.28,7.25-.72,1.93-.4,3.42-.8,4.46-1.21l-3.26-14.91c-.6.12-1.45.28-2.53.48Z" fill="#fff" stroke-width="0"/>
  <rect x="1571.42" y="195.42" width="18.05" height="123.64" fill="#fff" stroke-width="0"/>
  <path d="m1693.82,260.56c-3.54-2.7-7.38-4.87-11.53-6.52-4.14-1.65-8.19-2.96-12.13-3.92l-12.08-3.14c-2.41-.6-4.93-1.37-7.54-2.29-2.62-.97-5.07-2.15-7.37-3.56-2.25-1.45-4.08-3.24-5.49-5.37-1.37-2.13-2.05-4.67-2.05-7.61,0-3.5,1-6.62,3.02-9.36,2.05-2.78,4.93-4.95,8.63-6.52,3.7-1.61,8.09-2.41,13.16-2.41,7.08,0,12.96,1.59,17.63,4.77,4.66,3.14,7.32,7.57,7.97,13.28h17.99c-.17-6.64-2.1-12.52-5.8-17.63-3.7-5.15-8.77-9.2-15.21-12.13-6.4-2.94-13.79-4.41-22.16-4.41s-15.74,1.49-22.34,4.47c-6.6,2.94-11.83,7.06-15.69,12.38-3.87,5.31-5.8,11.53-5.8,18.65,0,8.61,2.88,15.54,8.64,20.77,5.79,5.23,13.64,9.2,23.54,11.89l14.61,3.99c4.43,1.17,8.39,2.51,11.89,4.04,3.54,1.53,6.34,3.46,8.39,5.8,2.1,2.33,3.14,5.33,3.14,8.99,0,4.02-1.18,7.55-3.56,10.56-2.37,2.98-5.63,5.31-9.78,7-4.1,1.65-8.79,2.47-14.07,2.47-4.78,0-9.19-.7-13.22-2.11-3.98-1.45-7.26-3.64-9.84-6.58-2.53-2.98-3.98-6.7-4.34-11.17h-18.72c.41,7.45,2.52,13.89,6.34,19.32,3.82,5.39,9.12,9.56,15.88,12.5s14.77,4.41,24.03,4.41,17.89-1.57,24.69-4.71c6.84-3.14,12.05-7.43,15.63-12.86,3.62-5.43,5.44-11.65,5.44-18.65,0-5.55-1.11-10.32-3.32-14.31-2.18-3.98-5.04-7.32-8.58-10.02Z" fill="#fff" stroke-width="0"/>
  <rect x="1.55" y="2.56" width="509.09" height="509.09" rx="122.52" ry="122.52" fill="none" stroke="#9dd0eb" stroke-width="3"/>
  <rect x="1.55" y="2.56" width="509.09" height="509.09" rx="122.52" ry="122.52" fill="none" stroke="#9dd0eb" stroke-width="3"/>
  <circle cx="256.3" cy="256.81" r="196.29" fill="none" stroke="#9dd0eb" stroke-width="3"/>
  <circle cx="256.3" cy="256.81" r="196.29" fill="none" stroke="#9dd0eb" stroke-width="3"/>
  <circle cx="255.8" cy="256.81" r="129.27" fill="none" stroke="#9dd0eb" stroke-width="3"/>
  <circle cx="256.3" cy="256.81" r="92.27" fill="none" stroke="#9dd0eb" stroke-width="3"/>
  <path d="m36.37,37.38l475.77,475.77" fill="none" stroke="#9dd0eb" stroke-width="3"/>
  <path d="m512.14,1.06L37.43,475.77" fill="none" stroke="#9dd0eb" stroke-width="3"/>
  <path d="m256.05,1.06v512.09" fill="none" stroke="#9dd0eb" stroke-width="3"/>
  <path d="m164.03,1.06v512.09" fill="none" stroke="#9dd0eb" stroke-width="3"/>
  <path d="m475.09,1.06v512.09" fill="none" stroke="#9dd0eb" stroke-width="3"/>
  <path d="m475.09,1.06v512.09" fill="none" stroke="#9dd0eb" stroke-width="3"/>
  <path d="m348.56,1.06v512.09" fill="none" stroke="#9dd0eb" stroke-width="3"/>
  <path d="m37.01,38.38v435.39" fill="none" stroke="#9dd0eb" stroke-width="3"/>
  <path d="m512.09,257.11H0" fill="none" stroke="#9dd0eb" stroke-width="3"/>
  <path d="m512.09,165.09H0" fill="none" stroke="#9dd0eb" stroke-width="3"/>
  <path d="m512.09,476.15H38.01" fill="none" stroke="#9dd0eb" stroke-width="3"/>
  <path d="m512.09,349.62H0" fill="none" stroke="#9dd0eb" stroke-width="3"/>
  <path d="m512.09,38.07H37.37" fill="none" stroke="#9dd0eb" stroke-width="3"/>
  <path d="m113.88,353.31l142.41,82.43v-168.53c0-6.57,3.49-12.65,9.18-15.94l130.21-75.37c6.8-3.94,6.8-13.79,0-17.75l-127.09-73.52c-7.61-4.41-16.97-4.41-24.58,0l-133.25,77.08c-5.69,3.29-9.18,9.37-9.18,15.96v154.26c0,8.82,4.69,16.96,12.3,21.37Z" fill="#9dd0eb" stroke-width="0"/>
  <path d="m395.03,247.29l-33.01-19.14-77.26,44.73v55.96l110.27-63.85c6.79-3.93,6.79-13.76,0-17.69Z" fill="#9dd0eb" stroke-width="0"/>
  <path d="m395.01,336.76l-33.33-19.3-76.92,44.53v56.13l110.23-63.67c6.79-3.93,6.81-13.76,0-17.71l.02.02Z" fill="#9dd0eb" stroke-width="0"/>
  <g mask="url(#mask)">
    <g>
      <circle cx="255.8" cy="256.81" r="129.27" fill="none" stroke="#1085b5" stroke-width="3"/>
      <circle cx="256.3" cy="256.81" r="92.27" fill="none" stroke="#1085b5" stroke-width="3"/>
      <path d="m36.37,37.38l475.77,475.77" fill="none" stroke="#1085b5" stroke-width="3"/>
      <path d="m512.14,1.06L37.43,475.77" fill="none" stroke="#1085b5" stroke-width="3"/>
      <path d="m256.05,1.06v512.09" fill="none" stroke="#1085b5" stroke-width="3"/>
      <path d="m164.03,1.06v512.09" fill="none" stroke="#1085b5" stroke-width="3"/>
      <path d="m348.56,1.06v512.09" fill="none" stroke="#1085b5" stroke-width="3"/>
      <path d="m512.09,257.11H0" fill="none" stroke="#1085b5" stroke-width="3"/>
      <path d="m512.09,165.09H0" fill="none" stroke="#1085b5" stroke-width="3"/>
      <path d="m512.09,349.62H0" fill="none" stroke="#1085b5" stroke-width="3"/>
    </g>
  </g>
</svg>