<svg xmlns="http://www.w3.org/2000/svg" xmlns:xlink="http://www.w3.org/1999/xlink" viewBox="0 0 162 35" width="162" height="35">
  <defs>
    <linearGradient id="linear-gradient" x1="81" y1="37.43" x2="81" y2="2.43" gradientTransform="translate(0 37.43) scale(1 -1)" gradientUnits="userSpaceOnUse">
      <stop offset="0" stop-color="#13bbee"/>
      <stop offset="1" stop-color="#2374bb"/>
    </linearGradient>
    <mask id="mask" x="0" y="-.07" width="35.08" height="35.14" maskUnits="userSpaceOnUse">
      <g id="mask0_156_91" data-name="mask0 156 91">
        <path d="m7.78,24.07l9.73,5.63v-11.52c0-.45.24-.86.63-1.09l8.9-5.15c.47-.27.47-.94,0-1.21l-8.69-5.02c-.52-.3-1.16-.3-1.68,0l-9.11,5.27c-.39.22-.63.64-.63,1.09v10.54c0,.6.32,1.16.84,1.46Z" fill="#9dd0eb" stroke-width="0"/>
        <path d="m27,16.83l-2.26-1.31-5.28,3.06v3.82l7.54-4.36c.46-.27.46-.94,0-1.21Z" fill="#9dd0eb" stroke-width="0"/>
        <path d="m27,22.94l-2.28-1.32-5.26,3.04v3.84l7.53-4.35c.46-.27.47-.94,0-1.21h0Z" fill="#9dd0eb" stroke-width="0"/>
      </g>
    </mask>
  </defs>
  <path d="m8.41,0h145.19c4.64,0,8.4,3.79,8.4,8.48v18.04c0,4.68-3.76,8.48-8.4,8.48H8.41C3.77,34.99,0,31.2,0,26.52V8.48C0,3.79,3.77,0,8.41,0Z" fill="url(#linear-gradient)" stroke-width="0"/>
  <rect x="75.88" y="15.4" width="1.23" height="6.34" fill="#fff" stroke-width="0"/>
  <path d="m83.27,15.59c-.32-.18-.7-.27-1.13-.27-.48,0-.87.1-1.18.31-.31.2-.54.47-.69.81h-.08v-1.03h-1.18v6.34h1.23v-3.76c0-.34.06-.62.19-.86.13-.24.3-.42.52-.54.22-.12.48-.19.76-.19.42,0,.75.13.99.39.24.26.36.62.36,1.08v3.88h1.23v-4.03c0-.52-.09-.96-.27-1.32-.18-.35-.43-.62-.76-.8Z" fill="#fff" stroke-width="0"/>
  <path d="m69.66,15.59c-.32-.18-.7-.27-1.13-.27-.48,0-.87.1-1.18.31-.31.2-.54.47-.68.81h-.08v-1.03h-1.18v6.34h1.23v-3.76c0-.34.06-.62.19-.86.13-.24.3-.42.52-.54.22-.12.48-.19.76-.19.42,0,.75.13.99.39.24.26.36.62.36,1.08v3.88h1.23v-4.03c0-.52-.09-.96-.27-1.32-.18-.35-.43-.62-.76-.8Z" fill="#fff" stroke-width="0"/>
  <path d="m62.93,16.05c-.27-.25-.57-.44-.9-.56-.34-.12-.68-.18-1.04-.18-.59,0-1.1.14-1.54.42-.44.28-.78.66-1.02,1.16-.24.5-.36,1.07-.36,1.72s.12,1.23.36,1.72c.24.49.59.87,1.04,1.13.45.27.99.4,1.61.4.46,0,.87-.07,1.23-.21.36-.14.66-.34.9-.6.24-.26.41-.56.5-.9l-1.17-.21c-.07.2-.18.36-.32.5-.14.13-.31.24-.5.31-.19.07-.41.1-.64.1-.36,0-.68-.08-.94-.23-.27-.16-.48-.38-.63-.68-.14-.28-.21-.61-.22-.99h4.5v-.44c0-.57-.08-1.06-.23-1.46-.15-.4-.36-.73-.63-.99Zm-3.64,1.96c.01-.27.08-.53.2-.76.14-.27.34-.49.59-.66.26-.17.56-.26.91-.26.32,0,.6.07.83.22.24.15.42.35.56.6.13.25.2.54.2.86h-3.29Z" fill="#fff" stroke-width="0"/>
  <polygon points="89.59 21.73 90.86 21.73 90.86 18.05 94.45 18.05 94.45 16.96 90.86 16.96 90.86 14.38 94.83 14.38 94.83 13.28 89.59 13.28 89.59 21.73" fill="#fff" stroke-width="0"/>
  <path d="m47.37,13.69c-.57-.35-1.22-.52-1.95-.52s-1.38.17-1.96.52c-.57.35-1.02.84-1.35,1.49-.33.65-.5,1.42-.5,2.32s.17,1.67.5,2.32c.33.65.78,1.15,1.35,1.5.57.35,1.23.52,1.96.52s1.38-.17,1.95-.52c.57-.35,1.03-.85,1.36-1.49.33-.65.5-1.42.5-2.33s-.17-1.68-.5-2.32c-.33-.65-.78-1.15-1.36-1.49Zm.26,5.56c-.22.47-.52.83-.91,1.07-.38.24-.82.36-1.3.36s-.92-.12-1.3-.36c-.38-.24-.68-.6-.91-1.07-.22-.47-.33-1.05-.33-1.74s.11-1.27.33-1.74c.22-.47.53-.83.91-1.07.38-.24.82-.37,1.3-.37s.92.12,1.3.37c.39.24.69.6.91,1.07.22.47.33,1.05.33,1.74s-.11,1.27-.33,1.74Z" fill="#fff" stroke-width="0"/>
  <path d="m55.44,15.7c-.4-.26-.86-.39-1.37-.39-.39,0-.71.07-.95.2-.24.13-.43.28-.56.45-.13.17-.24.33-.31.46h-.1v-1.03h-1.2v8.71h1.23v-3.36h.07c.07.13.18.29.32.46.14.17.33.32.57.45.24.13.56.19.94.19.51,0,.97-.13,1.37-.39.4-.26.71-.64.94-1.13.23-.49.34-1.08.34-1.76s-.12-1.27-.35-1.76c-.23-.49-.54-.86-.94-1.12Zm-.15,4.01c-.13.34-.31.61-.56.8-.25.2-.56.29-.92.29s-.65-.09-.9-.28c-.24-.19-.43-.45-.56-.79-.13-.34-.19-.73-.19-1.17s.06-.83.19-1.16c.13-.33.31-.59.56-.77.25-.18.55-.28.91-.28s.68.1.93.29c.25.19.44.46.56.79.13.33.19.71.19,1.13s-.06.8-.19,1.14Z" fill="#fff" stroke-width="0"/>
  <path d="m76.5,12.95c-.21,0-.4.07-.55.22-.15.14-.23.32-.23.52s.08.37.23.52c.15.14.34.21.55.21s.4-.07.55-.21c.15-.15.23-.32.23-.52s-.08-.38-.23-.52c-.15-.15-.33-.22-.55-.22Z" fill="#fff" stroke-width="0"/>
  <polygon points="140.81 15.4 139.33 15.4 136.81 18.08 136.7 18.08 136.7 13.28 135.46 13.28 135.46 21.73 136.7 21.73 136.7 19.49 137.31 18.87 139.47 21.73 140.98 21.73 138.24 18.12 140.81 15.4" fill="#fff" stroke-width="0"/>
  <path d="m130.41,16.63c.26-.18.56-.27.9-.27.39,0,.71.11.94.32.24.21.39.47.45.77h1.2c-.04-.43-.18-.8-.42-1.12-.23-.32-.54-.57-.91-.74-.38-.18-.81-.27-1.29-.27-.6,0-1.11.14-1.55.42-.44.28-.78.66-1.02,1.16-.24.49-.36,1.06-.36,1.7s.12,1.2.35,1.69c.24.49.57.88,1.01,1.16.44.28.97.42,1.58.42.5,0,.94-.09,1.31-.28.37-.18.67-.44.9-.76s.36-.69.4-1.1h-1.2c-.05.23-.14.42-.28.59-.13.16-.29.29-.48.38-.19.09-.4.13-.63.13-.35,0-.65-.09-.91-.28-.26-.18-.45-.44-.59-.78-.14-.34-.21-.73-.21-1.2s.07-.84.21-1.17c.14-.33.34-.59.6-.77Z" fill="#fff" stroke-width="0"/>
  <path d="m125.91,15.73c-.25-.16-.51-.26-.8-.32-.28-.06-.55-.09-.81-.09-.38,0-.75.06-1.09.17-.35.11-.65.28-.92.52-.26.24-.46.55-.6.93l1.16.26c.09-.22.25-.42.49-.61.24-.18.57-.28.98-.28s.7.1.9.3c.2.2.3.48.3.84v.03c0,.15-.05.26-.16.32-.11.07-.28.11-.52.14-.24.03-.54.06-.92.11-.3.04-.59.09-.88.16-.29.07-.55.17-.78.31-.23.13-.42.32-.56.55-.14.23-.21.53-.21.88,0,.42.09.77.28,1.05.19.29.45.5.77.66.32.15.69.22,1.09.22.35,0,.65-.05.9-.15.25-.1.46-.23.61-.38.16-.15.28-.31.36-.47h.05v.87h1.2v-4.21c0-.46-.08-.84-.24-1.13-.16-.29-.36-.52-.61-.67Zm-.38,3.72c0,.25-.06.49-.19.71-.13.22-.31.39-.56.53-.24.13-.53.2-.87.2s-.64-.08-.86-.23c-.23-.16-.34-.39-.34-.69,0-.22.06-.4.17-.53.12-.13.27-.24.47-.31.2-.07.42-.12.66-.15.1-.01.23-.03.38-.05.15-.02.31-.05.47-.07.16-.03.3-.06.43-.09.13-.04.21-.08.26-.12v.82Z" fill="#fff" stroke-width="0"/>
  <path d="m153.23,13.28v3.14h-.07c-.07-.13-.18-.28-.31-.46-.13-.17-.32-.32-.56-.45-.24-.13-.56-.2-.95-.2-.51,0-.96.13-1.37.39-.4.26-.72.63-.95,1.12-.23.49-.34,1.07-.34,1.76s.11,1.27.34,1.76c.23.49.54.86.94,1.13.4.26.86.39,1.37.39.38,0,.7-.06.94-.19.24-.13.43-.28.57-.45.14-.17.25-.33.32-.46h.1v.99h1.2v-8.45h-1.23Zm-.17,6.45c-.13.34-.31.6-.56.79-.25.19-.54.28-.9.28s-.67-.1-.92-.29c-.25-.2-.43-.47-.56-.8-.13-.34-.19-.72-.19-1.14s.06-.79.19-1.13c.13-.33.31-.6.56-.79.25-.19.56-.29.93-.29s.66.09.91.28c.24.18.43.44.56.77.13.33.19.72.19,1.16s-.06.84-.19,1.17Z" fill="#fff" stroke-width="0"/>
  <path d="m146.49,16.05c-.27-.25-.57-.44-.9-.56-.34-.12-.68-.18-1.04-.18-.59,0-1.1.14-1.54.42-.44.28-.78.66-1.02,1.16-.24.5-.36,1.07-.36,1.72s.12,1.23.36,1.72c.24.49.59.87,1.04,1.13.45.27.99.4,1.61.4.46,0,.87-.07,1.23-.21.36-.14.66-.34.9-.6.24-.26.41-.56.5-.9l-1.17-.21c-.07.2-.18.36-.32.5-.14.13-.31.24-.5.31-.19.07-.41.1-.64.1-.36,0-.68-.08-.95-.23-.27-.16-.48-.38-.63-.68-.14-.28-.21-.61-.22-.99h4.5v-.44c0-.57-.08-1.06-.23-1.46-.15-.4-.36-.73-.63-.99Zm-3.64,1.96c.01-.27.08-.53.2-.76.14-.27.34-.49.59-.66.26-.17.56-.26.91-.26.32,0,.6.07.83.22.24.15.43.35.56.6.13.25.2.54.2.86h-3.29Z" fill="#fff" stroke-width="0"/>
  <rect x="103.28" y="13.28" width="1.23" height="8.45" fill="#fff" stroke-width="0"/>
  <path d="m100.15,19.11c0,.36-.07.66-.23.89-.15.23-.34.41-.57.52-.23.12-.46.17-.69.17-.38,0-.69-.13-.93-.38-.24-.26-.36-.6-.36-1.03v-3.88h-1.23v4.03c0,.52.09.96.26,1.32.18.35.42.62.73.8.31.18.67.27,1.08.27.48,0,.87-.11,1.19-.33.32-.23.55-.51.7-.85h.07v1.1h1.21v-6.34h-1.24v3.71Z" fill="#fff" stroke-width="0"/>
  <path d="m119.92,20.7c-.07.01-.16.02-.26.02-.13,0-.26-.02-.38-.06-.11-.04-.21-.13-.28-.24-.07-.12-.11-.3-.11-.54v-3.49h1.3v-.99h-1.3v-1.52h-1.23v1.52h-.93v.99h.93v3.74c0,.38.09.7.26.95.17.25.4.44.68.56.28.12.58.18.91.17.2,0,.36-.02.5-.05.13-.03.23-.06.3-.08l-.22-1.02s-.1.02-.17.03Z" fill="#fff" stroke-width="0"/>
  <rect x="106.4" y="13.28" width="1.23" height="8.45" fill="#fff" stroke-width="0"/>
  <path d="m114.77,17.74c-.24-.18-.5-.33-.79-.45-.28-.11-.56-.2-.83-.27l-.83-.21c-.16-.04-.34-.09-.52-.16-.18-.07-.35-.15-.5-.24-.15-.1-.28-.22-.38-.37-.09-.15-.14-.32-.14-.52,0-.24.07-.45.21-.64.14-.19.34-.34.59-.45.25-.11.55-.17.9-.17.48,0,.89.11,1.2.33.32.21.5.52.54.91h1.23c-.01-.45-.14-.86-.4-1.2-.25-.35-.6-.63-1.04-.83-.44-.2-.94-.3-1.51-.3s-1.08.1-1.53.31c-.45.2-.81.48-1.07.85-.26.36-.4.79-.4,1.27,0,.59.2,1.06.59,1.42.4.36.93.63,1.61.81l1,.27c.3.08.57.17.81.28.24.1.43.24.57.4.14.16.21.36.21.61,0,.28-.08.52-.24.72-.16.2-.38.36-.67.48-.28.11-.6.17-.96.17-.33,0-.63-.05-.9-.14-.27-.1-.5-.25-.67-.45-.17-.2-.27-.46-.3-.76h-1.28c.03.51.17.95.43,1.32.26.37.62.65,1.09.85s1.01.3,1.64.3,1.22-.11,1.69-.32c.47-.21.82-.51,1.07-.88.25-.37.37-.8.37-1.27,0-.38-.08-.71-.23-.98-.15-.27-.34-.5-.59-.68Z" fill="#fff" stroke-width="0"/>
  <rect x=".11" y=".1" width="34.79" height="34.79" rx="8.37" ry="8.37" fill="none" stroke="#9dd0eb" stroke-width=".21"/>
  <rect x=".11" y=".1" width="34.79" height="34.79" rx="8.37" ry="8.37" fill="none" stroke="#9dd0eb" stroke-width=".21"/>
  <circle cx="17.52" cy="17.48" r="13.42" fill="none" stroke="#9dd0eb" stroke-width=".21"/>
  <circle cx="17.52" cy="17.48" r="13.42" fill="none" stroke="#9dd0eb" stroke-width=".21"/>
  <circle cx="17.48" cy="17.48" r="8.84" fill="none" stroke="#9dd0eb" stroke-width=".21"/>
  <circle cx="17.52" cy="17.48" r="6.31" fill="none" stroke="#9dd0eb" stroke-width=".21"/>
  <path d="m2.49,2.48l32.52,32.52" fill="none" stroke="#9dd0eb" stroke-width=".21"/>
  <path d="m35,0L2.56,32.44" fill="none" stroke="#9dd0eb" stroke-width=".21"/>
  <path d="m17.5,0v35" fill="none" stroke="#9dd0eb" stroke-width=".21"/>
  <path d="m11.21,0v35" fill="none" stroke="#9dd0eb" stroke-width=".21"/>
  <path d="m32.47,0v35" fill="none" stroke="#9dd0eb" stroke-width=".21"/>
  <path d="m32.47,0v35" fill="none" stroke="#9dd0eb" stroke-width=".21"/>
  <path d="m23.82,0v35" fill="none" stroke="#9dd0eb" stroke-width=".21"/>
  <path d="m2.53,2.55v29.76" fill="none" stroke="#9dd0eb" stroke-width=".21"/>
  <path d="m35,17.5H0" fill="none" stroke="#9dd0eb" stroke-width=".21"/>
  <path d="m35,11.21H0" fill="none" stroke="#9dd0eb" stroke-width=".21"/>
  <path d="m35,32.47H2.6" fill="none" stroke="#9dd0eb" stroke-width=".21"/>
  <path d="m35,23.82H0" fill="none" stroke="#9dd0eb" stroke-width=".21"/>
  <path d="m35,2.53H2.55" fill="none" stroke="#9dd0eb" stroke-width=".21"/>
  <path d="m7.78,24.07l9.73,5.63v-11.52c0-.45.24-.86.63-1.09l8.9-5.15c.47-.27.47-.94,0-1.21l-8.69-5.02c-.52-.3-1.16-.3-1.68,0l-9.11,5.27c-.39.22-.63.64-.63,1.09v10.54c0,.6.32,1.16.84,1.46Z" fill="#9dd0eb" stroke-width="0"/>
  <path d="m27,16.83l-2.26-1.31-5.28,3.06v3.82l7.54-4.36c.46-.27.46-.94,0-1.21Z" fill="#9dd0eb" stroke-width="0"/>
  <path d="m27,22.94l-2.28-1.32-5.26,3.04v3.84l7.53-4.35c.46-.27.47-.94,0-1.21h0Z" fill="#9dd0eb" stroke-width="0"/>
  <g mask="url(#mask)">
    <g>
      <circle cx="17.48" cy="17.48" r="8.84" fill="none" stroke="#1085b5" stroke-width=".21"/>
      <circle cx="17.52" cy="17.48" r="6.31" fill="none" stroke="#1085b5" stroke-width=".21"/>
      <path d="m2.49,2.48l32.52,32.52" fill="none" stroke="#1085b5" stroke-width=".21"/>
      <path d="m35,0L2.56,32.44" fill="none" stroke="#1085b5" stroke-width=".21"/>
      <path d="m17.5,0v35" fill="none" stroke="#1085b5" stroke-width=".21"/>
      <path d="m11.21,0v35" fill="none" stroke="#1085b5" stroke-width=".21"/>
      <path d="m23.82,0v35" fill="none" stroke="#1085b5" stroke-width=".21"/>
      <path d="m35,17.5H0" fill="none" stroke="#1085b5" stroke-width=".21"/>
      <path d="m35,11.21H0" fill="none" stroke="#1085b5" stroke-width=".21"/>
      <path d="m35,23.82H0" fill="none" stroke="#1085b5" stroke-width=".21"/>
    </g>
  </g>
</svg>