<svg xmlns="http://www.w3.org/2000/svg" xmlns:xlink="http://www.w3.org/1999/xlink" viewBox="0 0 150 32.27">
  <defs>
    <linearGradient id="linear-gradient" x1="75" y1="34.63" x2="75" y2="2.49" gradientTransform="translate(0 34.69) scale(1 -1)" gradientUnits="userSpaceOnUse">
      <stop offset="0" stop-color="#13bbee"/>
      <stop offset="1" stop-color="#2374bb"/>
    </linearGradient>
    <mask id="mask" x="0" y="0" width="32.21" height="32.27" maskUnits="userSpaceOnUse">
      <g id="mask0_156_91" data-name="mask0 156 91">
        <path d="m7.15,22.17l8.94,5.17v-10.58c0-.41.22-.79.58-1l8.17-4.73c.43-.25.43-.87,0-1.11l-7.98-4.61c-.48-.28-1.06-.28-1.54,0l-8.36,4.84c-.36.21-.58.59-.58,1v9.68c0,.55.29,1.06.77,1.34Z" fill="#9dd0eb" stroke-width="0"/>
        <path d="m24.79,15.52l-2.07-1.2-4.85,2.81v3.51l6.92-4.01c.43-.25.43-.86,0-1.11Z" fill="#9dd0eb" stroke-width="0"/>
        <path d="m24.79,21.14l-2.09-1.21-4.83,2.79v3.52l6.92-4c.43-.25.43-.86,0-1.11h0Z" fill="#9dd0eb" stroke-width="0"/>
      </g>
    </mask>
  </defs>
  <rect x="0" y=".07" width="150" height="32.13" rx="7.78" ry="7.78" fill="url(#linear-gradient)" stroke-width="0"/>
  <rect x="70.6" y="14.2" width="1.13" height="5.82" fill="#fff" stroke-width="0"/>
  <path d="m77.38,14.38c-.3-.17-.65-.25-1.04-.25-.44,0-.8.09-1.09.28-.29.19-.5.43-.63.74h-.07v-.95h-1.09v5.82h1.13v-3.46c0-.31.06-.57.17-.79.12-.22.28-.39.48-.5.2-.11.44-.17.7-.17.38,0,.69.12.91.36.22.24.33.57.33.99v3.57h1.13v-3.7c0-.48-.08-.88-.25-1.21-.16-.33-.4-.57-.69-.73Z" fill="#fff" stroke-width="0"/>
  <path d="m64.89,14.38c-.3-.17-.65-.25-1.04-.25-.44,0-.8.09-1.09.28-.29.19-.5.43-.63.74h-.07v-.95h-1.09v5.82h1.13v-3.46c0-.31.06-.57.17-.79.12-.22.28-.39.48-.5.2-.11.44-.17.7-.17.38,0,.69.12.91.36.22.24.33.57.33.99v3.57h1.13v-3.7c0-.48-.08-.88-.25-1.21-.16-.33-.4-.57-.69-.73Z" fill="#fff" stroke-width="0"/>
  <path d="m58.71,14.8c-.25-.23-.52-.4-.83-.51-.31-.11-.63-.16-.95-.16-.54,0-1.01.13-1.42.38-.4.26-.71.61-.94,1.06-.22.45-.33.98-.33,1.58s.11,1.13.33,1.58c.22.45.54.79.95,1.04.41.25.91.37,1.48.37.42,0,.8-.06,1.13-.19.33-.13.61-.31.83-.55.22-.24.38-.51.46-.83l-1.07-.19c-.07.18-.17.33-.3.46-.13.12-.28.22-.46.28-.18.06-.37.09-.59.09-.33,0-.62-.07-.87-.21-.25-.14-.44-.35-.58-.63-.13-.25-.19-.56-.2-.91h4.14v-.4c0-.53-.07-.98-.21-1.35-.14-.37-.33-.67-.58-.91Zm-3.34,1.8c.01-.25.08-.48.19-.7.13-.25.31-.45.55-.61.24-.16.52-.23.83-.23.29,0,.55.07.77.2.22.13.39.32.51.55.12.23.18.49.18.79h-3.02Z" fill="#fff" stroke-width="0"/>
  <polygon points="83.18 20.02 84.36 20.02 84.36 16.64 87.65 16.64 87.65 15.64 84.36 15.64 84.36 13.27 88 13.27 88 12.26 83.18 12.26 83.18 20.02" fill="#fff" stroke-width="0"/>
  <path d="m44.41,12.64c-.53-.32-1.12-.48-1.79-.48s-1.27.16-1.8.48c-.53.32-.94.78-1.24,1.37-.3.59-.45,1.3-.45,2.13s.15,1.54.45,2.13c.3.6.72,1.05,1.24,1.38.53.32,1.13.48,1.8.48s1.27-.16,1.79-.48c.53-.32.94-.78,1.25-1.37.3-.6.45-1.31.45-2.14s-.15-1.54-.45-2.13c-.3-.6-.72-1.05-1.25-1.37Zm.23,5.1c-.2.43-.48.76-.83.99-.35.22-.75.33-1.19.33s-.85-.11-1.2-.33c-.35-.22-.63-.55-.83-.99-.2-.43-.3-.97-.3-1.6s.1-1.16.3-1.6c.2-.43.48-.76.83-.99.35-.22.75-.34,1.2-.34s.84.11,1.19.34c.35.22.63.55.83.99.2.43.31.96.31,1.6s-.1,1.16-.31,1.6Z" fill="#fff" stroke-width="0"/>
  <path d="m51.83,14.49c-.37-.24-.79-.36-1.26-.36-.36,0-.65.06-.87.18-.22.12-.39.26-.52.42-.12.16-.22.3-.28.42h-.09v-.94h-1.11v8h1.13v-3.09h.07c.07.12.17.27.29.42.13.16.3.3.52.42.22.12.51.18.87.18.47,0,.89-.12,1.25-.36.37-.24.65-.59.86-1.03.21-.45.31-.99.31-1.62s-.11-1.17-.32-1.61c-.21-.45-.5-.79-.87-1.03Zm-.14,3.68c-.12.31-.29.56-.52.74-.23.18-.51.27-.85.27s-.6-.09-.83-.26c-.22-.17-.4-.42-.52-.72-.12-.31-.18-.67-.18-1.08s.06-.76.17-1.06c.12-.3.29-.54.51-.71.23-.17.51-.25.83-.25s.63.09.85.27c.23.18.4.42.52.72.12.31.17.65.17,1.03s-.06.74-.18,1.05Z" fill="#fff" stroke-width="0"/>
  <path d="m71.17,11.95c-.2,0-.37.07-.51.2-.14.13-.21.29-.21.48s.07.34.21.48c.14.13.31.2.51.2s.37-.07.5-.2c.14-.13.21-.29.21-.48s-.07-.35-.21-.48c-.14-.13-.31-.2-.5-.2Z" fill="#fff" stroke-width="0"/>
  <polygon points="130.22 14.2 128.86 14.2 126.54 16.67 126.44 16.67 126.44 12.26 125.31 12.26 125.31 20.02 126.44 20.02 126.44 17.96 127.01 17.4 128.99 20.02 130.38 20.02 127.86 16.7 130.22 14.2" fill="#fff" stroke-width="0"/>
  <path d="m120.67,15.33c.24-.17.51-.25.83-.25.36,0,.65.1.86.3.22.2.36.43.42.7h1.1c-.04-.39-.17-.73-.38-1.03-.21-.29-.49-.52-.84-.68-.35-.16-.74-.25-1.18-.25-.55,0-1.02.13-1.43.38-.4.26-.72.61-.94,1.06-.22.45-.33.97-.33,1.56s.11,1.1.33,1.55c.22.45.53.81.93,1.06.41.26.89.38,1.46.38.46,0,.86-.08,1.2-.25.34-.17.62-.4.82-.7s.33-.63.37-1.01h-1.1c-.05.21-.13.39-.25.54-.12.15-.27.26-.44.34-.17.08-.37.12-.58.12-.32,0-.6-.08-.84-.25-.24-.17-.42-.41-.55-.72-.13-.31-.19-.67-.19-1.1s.07-.77.2-1.08c.13-.31.31-.54.55-.7Z" fill="#fff" stroke-width="0"/>
  <path d="m116.54,14.51c-.23-.14-.47-.24-.73-.3-.26-.06-.51-.08-.74-.08-.35,0-.69.05-1,.15-.32.1-.6.26-.85.48-.24.22-.43.5-.55.86l1.06.24c.08-.2.23-.39.45-.56.22-.17.52-.25.9-.25s.64.09.83.27c.19.18.28.44.28.77v.03c0,.14-.05.23-.15.3-.1.06-.26.1-.47.13-.22.03-.5.06-.85.1-.28.03-.55.08-.81.14-.26.06-.51.16-.72.28-.21.12-.39.29-.51.5-.13.21-.19.48-.19.81,0,.38.09.7.26.97.17.26.41.46.71.6.3.14.63.2,1,.2.32,0,.6-.05.83-.14.23-.09.42-.21.56-.35.15-.14.26-.29.33-.43h.05v.8h1.11v-3.86c0-.42-.07-.77-.22-1.03-.15-.27-.33-.47-.56-.62Zm-.35,3.42c0,.23-.06.45-.18.65-.12.2-.29.36-.51.48-.22.12-.49.19-.8.19s-.58-.07-.79-.21c-.21-.14-.31-.36-.31-.64,0-.2.05-.36.16-.48.11-.12.25-.22.43-.28.18-.07.38-.11.6-.14.09-.01.21-.03.35-.05.14-.02.28-.04.43-.06.15-.03.28-.05.39-.09.12-.04.19-.07.23-.11v.75Z" fill="#fff" stroke-width="0"/>
  <path d="m141.63,12.26v2.88h-.07c-.07-.12-.16-.26-.29-.42-.12-.16-.29-.3-.52-.42-.22-.12-.51-.18-.87-.18-.47,0-.89.12-1.25.36-.37.24-.66.58-.87,1.03-.21.45-.31.99-.31,1.61s.1,1.17.31,1.62c.21.45.5.79.86,1.03.37.24.79.36,1.26.36.35,0,.64-.06.86-.18.22-.12.4-.26.52-.42.13-.16.23-.3.29-.42h.09v.91h1.11v-7.76h-1.13Zm-.16,5.93c-.12.31-.29.55-.52.72-.23.17-.5.26-.83.26s-.62-.09-.85-.27c-.23-.18-.4-.43-.52-.74-.12-.31-.17-.66-.17-1.05s.06-.73.17-1.03c.12-.31.29-.55.52-.72.23-.18.51-.27.85-.27s.61.08.83.25c.22.17.39.41.51.71.12.3.17.66.17,1.06s-.06.77-.18,1.08Z" fill="#fff" stroke-width="0"/>
  <path d="m135.44,14.8c-.24-.23-.52-.4-.83-.51-.31-.11-.63-.16-.95-.16-.54,0-1.01.13-1.42.38-.4.26-.71.61-.94,1.06-.22.45-.33.98-.33,1.58s.11,1.13.33,1.58c.22.45.54.79.95,1.04.41.25.91.37,1.48.37.42,0,.8-.06,1.13-.19.33-.13.61-.31.83-.55.22-.24.38-.51.46-.83l-1.07-.19c-.07.18-.17.33-.3.46-.13.12-.28.22-.46.28-.18.06-.37.09-.59.09-.33,0-.62-.07-.87-.21-.25-.14-.44-.35-.58-.63-.13-.25-.19-.56-.2-.91h4.14v-.4c0-.53-.07-.98-.21-1.35-.14-.37-.33-.67-.58-.91Zm-3.34,1.8c.01-.25.08-.48.19-.7.13-.25.31-.45.55-.61.24-.16.52-.23.83-.23.29,0,.55.07.77.2.22.13.39.32.51.55.12.23.18.49.18.79h-3.02Z" fill="#fff" stroke-width="0"/>
  <rect x="95.75" y="12.26" width="1.13" height="7.76" fill="#fff" stroke-width="0"/>
  <path d="m92.88,17.61c0,.33-.07.6-.21.82-.14.21-.31.38-.53.48-.21.11-.42.16-.63.16-.35,0-.64-.12-.86-.35-.22-.23-.33-.55-.33-.95v-3.57h-1.13v3.7c0,.48.08.88.24,1.21.16.33.39.57.67.74.29.16.62.25.99.25.44,0,.8-.1,1.1-.31.29-.21.51-.47.64-.78h.06v1.01h1.11v-5.82h-1.14v3.41Z" fill="#fff" stroke-width="0"/>
  <path d="m111.03,19.07c-.07.01-.15.02-.24.02-.12,0-.24-.02-.34-.06-.1-.04-.19-.11-.25-.22-.07-.11-.1-.28-.1-.5v-3.2h1.19v-.91h-1.19v-1.39h-1.13v1.39h-.85v.91h.85v3.44c0,.35.08.64.24.88.16.23.37.4.63.52.26.11.54.16.83.16.18,0,.33-.02.46-.05.12-.03.21-.05.28-.08l-.2-.94s-.09.02-.16.03Z" fill="#fff" stroke-width="0"/>
  <rect x="98.62" y="12.26" width="1.13" height="7.76" fill="#fff" stroke-width="0"/>
  <path d="m106.3,16.35c-.22-.17-.46-.31-.72-.41-.26-.1-.51-.19-.76-.25l-.76-.2c-.15-.04-.31-.09-.47-.14-.16-.06-.32-.14-.46-.22-.14-.09-.26-.2-.34-.34-.09-.13-.13-.29-.13-.48,0-.22.06-.42.19-.59.13-.17.31-.31.54-.41.23-.1.51-.15.83-.15.44,0,.81.1,1.11.3.29.2.46.47.5.83h1.13c-.01-.42-.13-.79-.36-1.11-.23-.32-.55-.58-.95-.76-.4-.18-.87-.28-1.39-.28s-.99.09-1.4.28c-.41.18-.74.44-.98.78-.24.33-.36.72-.36,1.17,0,.54.18.97.54,1.3.36.33.86.58,1.48.75l.92.25c.28.07.53.16.75.25.22.1.4.22.53.36.13.15.2.33.2.56,0,.25-.07.47-.22.66-.15.19-.35.33-.61.44-.26.1-.55.16-.88.16-.3,0-.58-.04-.83-.13-.25-.09-.46-.23-.62-.41-.16-.19-.25-.42-.27-.7h-1.17c.03.47.16.87.4,1.21.24.34.57.6,1,.78s.93.28,1.51.28,1.12-.1,1.55-.3c.43-.2.76-.47.98-.81.23-.34.34-.73.34-1.17,0-.35-.07-.65-.21-.9-.14-.25-.32-.46-.54-.63Z" fill="#fff" stroke-width="0"/>
  <rect x=".1" y=".16" width="31.95" height="31.95" rx="7.69" ry="7.69" fill="none" stroke="#9dd0eb" stroke-width=".19"/>
  <rect x=".1" y=".16" width="31.95" height="31.95" rx="7.69" ry="7.69" fill="none" stroke="#9dd0eb" stroke-width=".19"/>
  <circle cx="16.09" cy="16.12" r="12.32" fill="none" stroke="#9dd0eb" stroke-width=".19"/>
  <circle cx="16.09" cy="16.12" r="12.32" fill="none" stroke="#9dd0eb" stroke-width=".19"/>
  <circle cx="16.05" cy="16.12" r="8.11" fill="none" stroke="#9dd0eb" stroke-width=".19"/>
  <circle cx="16.09" cy="16.12" r="5.79" fill="none" stroke="#9dd0eb" stroke-width=".19"/>
  <path d="m2.28,2.35l29.86,29.86" fill="none" stroke="#9dd0eb" stroke-width=".19"/>
  <path d="m32.14.07L2.35,29.86" fill="none" stroke="#9dd0eb" stroke-width=".19"/>
  <path d="m16.07.07v32.14" fill="none" stroke="#9dd0eb" stroke-width=".19"/>
  <path d="m10.29.07v32.14" fill="none" stroke="#9dd0eb" stroke-width=".19"/>
  <path d="m29.82.07v32.14" fill="none" stroke="#9dd0eb" stroke-width=".19"/>
  <path d="m29.82.07v32.14" fill="none" stroke="#9dd0eb" stroke-width=".19"/>
  <path d="m21.88.07v32.14" fill="none" stroke="#9dd0eb" stroke-width=".19"/>
  <path d="m2.32,2.41v27.33" fill="none" stroke="#9dd0eb" stroke-width=".19"/>
  <path d="m32.14,16.14H0" fill="none" stroke="#9dd0eb" stroke-width=".19"/>
  <path d="m32.14,10.36H0" fill="none" stroke="#9dd0eb" stroke-width=".19"/>
  <path d="m32.14,29.88H2.39" fill="none" stroke="#9dd0eb" stroke-width=".19"/>
  <path d="m32.14,21.94H0" fill="none" stroke="#9dd0eb" stroke-width=".19"/>
  <path d="m32.14,2.39H2.35" fill="none" stroke="#9dd0eb" stroke-width=".19"/>
  <path d="m7.15,22.17l8.94,5.17v-10.58c0-.41.22-.79.58-1l8.17-4.73c.43-.25.43-.87,0-1.11l-7.98-4.61c-.48-.28-1.06-.28-1.54,0l-8.36,4.84c-.36.21-.58.59-.58,1v9.68c0,.55.29,1.06.77,1.34Z" fill="#9dd0eb" stroke-width="0"/>
  <path d="m24.79,15.52l-2.07-1.2-4.85,2.81v3.51l6.92-4.01c.43-.25.43-.86,0-1.11Z" fill="#9dd0eb" stroke-width="0"/>
  <path d="m24.79,21.14l-2.09-1.21-4.83,2.79v3.52l6.92-4c.43-.25.43-.86,0-1.11h0Z" fill="#9dd0eb" stroke-width="0"/>
  <g mask="url(#mask)">
    <g>
      <circle cx="16.05" cy="16.12" r="8.11" fill="none" stroke="#1085b5" stroke-width=".19"/>
      <circle cx="16.09" cy="16.12" r="5.79" fill="none" stroke="#1085b5" stroke-width=".19"/>
      <path d="m2.28,2.35l29.86,29.86" fill="none" stroke="#1085b5" stroke-width=".19"/>
      <path d="m32.14.07L2.35,29.86" fill="none" stroke="#1085b5" stroke-width=".19"/>
      <path d="m16.07.07v32.14" fill="none" stroke="#1085b5" stroke-width=".19"/>
      <path d="m10.29.07v32.14" fill="none" stroke="#1085b5" stroke-width=".19"/>
      <path d="m21.88.07v32.14" fill="none" stroke="#1085b5" stroke-width=".19"/>
      <path d="m32.14,16.14H0" fill="none" stroke="#1085b5" stroke-width=".19"/>
      <path d="m32.14,10.36H0" fill="none" stroke="#1085b5" stroke-width=".19"/>
      <path d="m32.14,21.94H0" fill="none" stroke="#1085b5" stroke-width=".19"/>
    </g>
  </g>
</svg>